:SAMPLES-PER-SECOND 30
:FULLY-SPECIFIED
:DEGREES
27
root  17.3792 40.0045 3.38154 167.316 -86.8012 -166.808
RightUpLeg  -1.80281 -5.23562 -0.670498
RightLeg  1.8498 4.06466 -0.397674
RightFoot  -1.29969 -0.0473127 0.441026
RightToes  5.82063e-011 0 -3.6325e-017
Spine  2.54408 0.981725 4.60395
Spine1  0.249272 1.38543 -2.40717
HEad  -7.73661 -9.97099 -2.86574
LeftShoulder1  0.271084 1.04026 -2.6114
LeftArm  -20.3215 4.97866 -17.364
LeftForeArm  0.324134 0.832671 2.07902
LeftHand  -0.0360153 4.78454 2.30722
RightShoulder  0.102122 -2.32866 -0.8466
RightArm  -10.6985 2.93364 10.8844
RightForeArm  -1.87683 -1.55593 -2.96189
RightHand  -0.0338876 4.68138 -0.68373
LeftUpLeg  -3.81398 8.5203 5.69817
LeftLeg  5.13073 -1.63287 -0.489817
LeftFoot  -1.87034 -0.0151275 0.3442
LeftToes  2.58842e-009 -1.78069e-010 3.24654e-012
28
root  17.3751 40.0065 3.37308 167.137 -86.8215 -166.627
RightUpLeg  -1.77948 -5.26073 -0.67543
RightLeg  1.8289 4.07151 -0.361743
RightFoot  -1.30752 -0.0426379 0.373021
RightToes  5.82063e-011 0 -3.6325e-017
Spine  2.73944 0.929607 4.80305
Spine1  0.0380185 1.39125 -2.71678
HEad  -7.78917 -10.0313 -2.807
LeftShoulder1  0.270499 0.989172 -2.50198
LeftArm  -20.2566 4.87018 -17.3195
LeftForeArm  0.942084 1.00804 2.07117
LeftHand  -0.0415062 4.12238 1.93508
RightShoulder  0.10378 -2.36227 -0.732447
RightArm  -10.595 2.95823 10.8479
RightForeArm  -1.89626 -1.48551 -2.9101
RightHand  -0.0342117 4.56003 -0.68805
LeftUpLeg  -3.81912 8.46923 5.68284
LeftLeg  5.15064 -1.61204 -0.420938
LeftFoot  -1.90509 -0.0123711 0.30995
LeftToes  2.58842e-009 -1.78069e-010 3.24654e-012
29
root  17.3747 40.0043 3.36266 167.003 -86.8164 -166.479
RightUpLeg  -1.81653 -5.25634 -0.65155
RightLeg  1.87545 4.0554 -0.341743
RightFoot  -1.32567 -0.0338023 0.241026
RightToes  5.82063e-011 0 -3.6325e-017
Spine  2.85712 0.893476 4.75959
Spine1  -0.0795799 1.34448 -2.65181
HEad  -7.84142 -10.0155 -2.78359
LeftShoulder1  0.270823 0.964033 -2.52039
LeftArm  -20.6357 4.92195 -17.3436
LeftForeArm  0.92917 1.12306 2.34614
LeftHand  -0.0449447 3.45088 1.61911
RightShoulder  0.104487 -2.35168 -0.72695
RightArm  -10.6139 3.00779 10.8783
RightForeArm  -1.83885 -1.41227 -2.90023
RightHand  -0.0471076 4.65156 -0.836756
LeftUpLeg  -3.82051 8.46555 5.70681
LeftLeg  5.127 -1.63535 -0.410915
LeftFoot  -1.86742 -0.0124756 0.32104
LeftToes  2.58842e-009 -1.78069e-010 3.24654e-012
30
root  17.3732 39.9978 3.35004 166.545 -86.8668 -166.031
RightUpLeg  -1.77257 -5.22756 -0.624222
RightLeg  1.83833 3.99279 -0.346282
RightFoot  -1.39275 -0.042566 0.382743
RightToes  5.82063e-011 0 -3.6325e-017
Spine  2.99953 0.855315 4.79486
Spine1  -0.164605 1.3172 -2.7061
HEad  -7.84822 -10.0152 -2.8299
LeftShoulder1  0.278906 0.900635 -2.56755
LeftArm  -20.6831 4.81439 -17.372
LeftForeArm  0.927452 1.21921 2.36829
LeftHand  -0.0486278 3.52 1.95545
RightShoulder  0.104439 -2.41655 -0.51587
RightArm  -10.5332 3.13171 10.7069
RightForeArm  -1.93895 -1.43104 -2.84966
RightHand  -0.0425227 4.78928 -0.779296
LeftUpLeg  -3.8072 8.45864 5.74483
LeftLeg  5.12234 -1.72855 -0.400244
LeftFoot  -1.93223 0.00747058 0.0212466
LeftToes  2.58842e-009 -1.78069e-010 3.24654e-012
31
root  17.3668 39.9989 3.33064 166.062 -86.8444 -165.513
RightUpLeg  -1.81602 -5.19056 -0.557214
RightLeg  1.87085 3.95994 -0.337631
RightFoot  -1.40071 -0.0408261 0.361796
RightToes  5.82063e-011 0 -3.6325e-017
Spine  2.95832 0.85381 4.69924
Spine1  -0.106268 1.28467 -2.52966
HEad  -7.77073 -10.0763 -2.93253
LeftShoulder1  0.298226 0.694678 -2.45465
LeftArm  -20.6677 5.08633 -17.5647
LeftForeArm  0.477686 0.990259 2.33232
LeftHand  -0.0405966 4.47998 2.35707
RightShoulder  0.103902 -2.41267 -0.335947
RightArm  -10.4885 3.30954 10.5539
RightForeArm  -1.77026 -1.57536 -2.84122
RightHand  -0.0127299 4.59387 -0.439221
LeftUpLeg  -3.86294 8.45476 5.77886
LeftLeg  5.15592 -1.71862 -0.36155
LeftFoot  -1.89043 3.24833e-006 0.148044
LeftToes  2.58842e-009 -1.78069e-010 3.24654e-012
32
root  17.3546 40.0043 3.30649 166.909 -86.793 -166.326
RightUpLeg  -1.83547 -5.17596 -0.538006
RightLeg  1.85698 3.98307 -0.345122
RightFoot  -1.37042 -0.033652 0.256755
RightToes  5.82063e-011 0 -3.6325e-017
Spine  2.93132 0.87078 4.67549
Spine1  -0.0438442 1.31721 -2.61084
HEad  -7.8348 -10.0582 -2.88562
LeftShoulder1  0.29405 0.720183 -2.39717
LeftArm  -20.7816 4.96442 -17.6586
LeftForeArm  0.544985 0.950693 2.36874
LeftHand  -0.0317074 5.04148 2.35141
RightShoulder  0.103095 -2.43322 -0.322195
RightArm  -10.5433 3.24606 10.7371
RightForeArm  -1.82149 -1.6564 -2.88074
RightHand  -0.0169368 4.71431 -0.492425
LeftUpLeg  -3.82206 8.50134 5.79628
LeftLeg  5.07399 -1.66241 -0.383747
LeftFoot  -1.85232 -0.0106045 0.324058
LeftToes  2.58842e-009 -1.78069e-010 3.24654e-012
